<svg xmlns="http://www.w3.org/2000/svg" width="18" height="18" viewBox="0 0 18 18" fill="none">
  <path d="M14.4742 5.6625C14.4117 5.6625 14.3586 5.65 14.3148 5.625C14.2711 5.6 14.2367 5.55625 14.2117 5.49375L13.668 4.21875L12.2992 3.61875C12.2367 3.59375 12.193 3.55938 12.168 3.51562C12.143 3.47188 12.1305 3.41875 12.1305 3.35625C12.1305 3.29375 12.143 3.24063 12.168 3.19688C12.193 3.15313 12.2367 3.11875 12.2992 3.09375L13.668 2.5125L14.2117 1.29375C14.2367 1.23125 14.2711 1.1875 14.3148 1.1625C14.3586 1.1375 14.4117 1.125 14.4742 1.125C14.5367 1.125 14.5898 1.1375 14.6336 1.1625C14.6773 1.1875 14.7117 1.23125 14.7367 1.29375L15.2805 2.5125L16.6492 3.09375C16.7117 3.11875 16.7555 3.15313 16.7805 3.19688C16.8055 3.24063 16.818 3.29375 16.818 3.35625C16.818 3.41875 16.8055 3.47188 16.7805 3.51562C16.7555 3.55938 16.7117 3.59375 16.6492 3.61875L15.2805 4.21875L14.7367 5.49375C14.7117 5.55625 14.6773 5.6 14.6336 5.625C14.5898 5.65 14.5367 5.6625 14.4742 5.6625ZM14.4742 16.8375C14.4242 16.8375 14.3742 16.825 14.3242 16.8C14.2742 16.775 14.2367 16.7313 14.2117 16.6688L13.668 15.45L12.318 14.8688C12.2555 14.8438 12.2117 14.8094 12.1867 14.7656C12.1617 14.7219 12.1492 14.6688 12.1492 14.6063C12.1492 14.5438 12.1617 14.4906 12.1867 14.4469C12.2117 14.4031 12.2555 14.3688 12.318 14.3438L13.668 13.7625L14.2117 12.4688C14.2367 12.4062 14.2711 12.3625 14.3148 12.3375C14.3586 12.3125 14.4117 12.3 14.4742 12.3C14.5367 12.3 14.5898 12.3125 14.6336 12.3375C14.6773 12.3625 14.7117 12.4062 14.7367 12.4688L15.2805 13.7625L16.6305 14.3438C16.693 14.3688 16.7367 14.4031 16.7617 14.4469C16.7867 14.4906 16.7992 14.5438 16.7992 14.6063C16.7992 14.6688 16.7867 14.7219 16.7617 14.7656C16.7367 14.8094 16.693 14.8438 16.6305 14.8688L15.2805 15.45L14.7367 16.6688C14.7117 16.7313 14.6742 16.775 14.6242 16.8C14.5742 16.825 14.5242 16.8375 14.4742 16.8375ZM6.24297 13.5938C6.14297 13.5938 6.04609 13.5656 5.95234 13.5094C5.85859 13.4531 5.78672 13.375 5.73672 13.275L4.51797 10.6688L1.89297 9.4875C1.79297 9.4375 1.71484 9.36563 1.65859 9.27188C1.60234 9.17813 1.57422 9.08125 1.57422 8.98125C1.57422 8.88125 1.60234 8.78438 1.65859 8.69063C1.71484 8.59688 1.79297 8.525 1.89297 8.475L4.51797 7.29375L5.73672 4.70625C5.78672 4.59375 5.85859 4.50938 5.95234 4.45313C6.04609 4.39688 6.14297 4.36875 6.24297 4.36875C6.34297 4.36875 6.43984 4.39688 6.53359 4.45313C6.62734 4.50938 6.69922 4.5875 6.74922 4.6875L7.98672 7.29375L10.593 8.475C10.7055 8.525 10.7898 8.59688 10.8461 8.69063C10.9023 8.78438 10.9305 8.88125 10.9305 8.98125C10.9305 9.08125 10.9023 9.17813 10.8461 9.27188C10.7898 9.36563 10.7055 9.4375 10.593 9.4875L7.98672 10.6688L6.74922 13.275C6.69922 13.3875 6.62734 13.4688 6.53359 13.5188C6.43984 13.5688 6.34297 13.5938 6.24297 13.5938Z" fill="#F9F9F9"/>
</svg>